<mxfile>
    <diagram id="STCJiIGJBRzf83rgyBG6" name="Page-1">
        <mxGraphModel dx="830" dy="617" grid="1" gridSize="10" guides="1" tooltips="1" connect="1" arrows="1" fold="1" page="1" pageScale="1" pageWidth="850" pageHeight="1100" math="0" shadow="0">
            <root>
                <mxCell id="0"/>
                <mxCell id="1" parent="0"/>
                <mxCell id="sVLV9i07jI9ABUai_hqA-2" style="edgeStyle=orthogonalEdgeStyle;rounded=0;orthogonalLoop=1;jettySize=auto;html=1;" parent="1" source="sVLV9i07jI9ABUai_hqA-1" target="sVLV9i07jI9ABUai_hqA-3" edge="1">
                    <mxGeometry relative="1" as="geometry">
                        <mxPoint x="230" y="150" as="targetPoint"/>
                    </mxGeometry>
                </mxCell>
                <mxCell id="sVLV9i07jI9ABUai_hqA-1" value="inicio" style="ellipse;whiteSpace=wrap;html=1;" parent="1" vertex="1">
                    <mxGeometry x="170" y="20" width="120" height="80" as="geometry"/>
                </mxCell>
                <mxCell id="sVLV9i07jI9ABUai_hqA-4" value="si" style="edgeStyle=orthogonalEdgeStyle;rounded=0;orthogonalLoop=1;jettySize=auto;html=1;" parent="1" source="sVLV9i07jI9ABUai_hqA-3" edge="1">
                    <mxGeometry relative="1" as="geometry">
                        <mxPoint x="230" y="260" as="targetPoint"/>
                    </mxGeometry>
                </mxCell>
                <mxCell id="2" value="no" style="edgeStyle=orthogonalEdgeStyle;rounded=0;orthogonalLoop=1;jettySize=auto;html=1;entryX=0;entryY=0.5;entryDx=0;entryDy=0;" edge="1" parent="1" source="sVLV9i07jI9ABUai_hqA-3" target="sVLV9i07jI9ABUai_hqA-12">
                    <mxGeometry relative="1" as="geometry">
                        <Array as="points">
                            <mxPoint x="130" y="180"/>
                            <mxPoint x="130" y="610"/>
                        </Array>
                    </mxGeometry>
                </mxCell>
                <mxCell id="sVLV9i07jI9ABUai_hqA-3" value="Nuevo cliente?" style="rhombus;whiteSpace=wrap;html=1;" parent="1" vertex="1">
                    <mxGeometry x="190" y="140" width="80" height="80" as="geometry"/>
                </mxCell>
                <mxCell id="sVLV9i07jI9ABUai_hqA-7" style="edgeStyle=orthogonalEdgeStyle;rounded=0;orthogonalLoop=1;jettySize=auto;html=1;" parent="1" source="sVLV9i07jI9ABUai_hqA-6" target="sVLV9i07jI9ABUai_hqA-8" edge="1">
                    <mxGeometry relative="1" as="geometry">
                        <mxPoint x="230" y="390" as="targetPoint"/>
                    </mxGeometry>
                </mxCell>
                <mxCell id="sVLV9i07jI9ABUai_hqA-25" value="no" style="edgeStyle=orthogonalEdgeStyle;rounded=0;orthogonalLoop=1;jettySize=auto;html=1;entryX=0.008;entryY=0.7;entryDx=0;entryDy=0;entryPerimeter=0;" parent="1" source="sVLV9i07jI9ABUai_hqA-6" target="sVLV9i07jI9ABUai_hqA-24" edge="1">
                    <mxGeometry relative="1" as="geometry">
                        <Array as="points">
                            <mxPoint x="70" y="300"/>
                            <mxPoint x="70" y="1192"/>
                        </Array>
                    </mxGeometry>
                </mxCell>
                <mxCell id="sVLV9i07jI9ABUai_hqA-6" value="Hay disponibilidad?" style="rhombus;whiteSpace=wrap;html=1;" parent="1" vertex="1">
                    <mxGeometry x="190" y="260" width="80" height="80" as="geometry"/>
                </mxCell>
                <mxCell id="sVLV9i07jI9ABUai_hqA-9" style="edgeStyle=orthogonalEdgeStyle;rounded=0;orthogonalLoop=1;jettySize=auto;html=1;" parent="1" source="sVLV9i07jI9ABUai_hqA-8" target="sVLV9i07jI9ABUai_hqA-10" edge="1">
                    <mxGeometry relative="1" as="geometry">
                        <mxPoint x="230" y="480" as="targetPoint"/>
                    </mxGeometry>
                </mxCell>
                <mxCell id="sVLV9i07jI9ABUai_hqA-8" value="&lt;div&gt;Ingresar:&lt;/div&gt;&lt;div&gt;nombre cliente&lt;/div&gt;&lt;div&gt;# casillero&lt;/div&gt;&lt;div&gt;Fecha y hora de ingreso&lt;br&gt;&lt;/div&gt;" style="shape=parallelogram;perimeter=parallelogramPerimeter;whiteSpace=wrap;html=1;fixedSize=1;" parent="1" vertex="1">
                    <mxGeometry x="140" y="380" width="180" height="60" as="geometry"/>
                </mxCell>
                <mxCell id="sVLV9i07jI9ABUai_hqA-11" style="edgeStyle=orthogonalEdgeStyle;rounded=0;orthogonalLoop=1;jettySize=auto;html=1;" parent="1" source="sVLV9i07jI9ABUai_hqA-10" target="sVLV9i07jI9ABUai_hqA-12" edge="1">
                    <mxGeometry relative="1" as="geometry">
                        <mxPoint x="230" y="580" as="targetPoint"/>
                    </mxGeometry>
                </mxCell>
                <mxCell id="sVLV9i07jI9ABUai_hqA-10" value="Guardar bicicleta" style="rounded=0;whiteSpace=wrap;html=1;" parent="1" vertex="1">
                    <mxGeometry x="170" y="470" width="120" height="60" as="geometry"/>
                </mxCell>
                <mxCell id="sVLV9i07jI9ABUai_hqA-13" style="edgeStyle=orthogonalEdgeStyle;rounded=0;orthogonalLoop=1;jettySize=auto;html=1;" parent="1" source="sVLV9i07jI9ABUai_hqA-12" target="sVLV9i07jI9ABUai_hqA-14" edge="1">
                    <mxGeometry relative="1" as="geometry">
                        <mxPoint x="230" y="710" as="targetPoint"/>
                    </mxGeometry>
                </mxCell>
                <mxCell id="sVLV9i07jI9ABUai_hqA-26" value="no" style="edgeStyle=orthogonalEdgeStyle;rounded=0;orthogonalLoop=1;jettySize=auto;html=1;exitX=1;exitY=0.5;exitDx=0;exitDy=0;entryX=1;entryY=0.5;entryDx=0;entryDy=0;" parent="1" source="sVLV9i07jI9ABUai_hqA-12" target="sVLV9i07jI9ABUai_hqA-10" edge="1">
                    <mxGeometry relative="1" as="geometry">
                        <Array as="points">
                            <mxPoint x="350" y="610"/>
                            <mxPoint x="350" y="500"/>
                        </Array>
                    </mxGeometry>
                </mxCell>
                <mxCell id="sVLV9i07jI9ABUai_hqA-12" value="Se retira ? " style="rhombus;whiteSpace=wrap;html=1;" parent="1" vertex="1">
                    <mxGeometry x="190" y="570" width="80" height="80" as="geometry"/>
                </mxCell>
                <mxCell id="sVLV9i07jI9ABUai_hqA-15" style="edgeStyle=orthogonalEdgeStyle;rounded=0;orthogonalLoop=1;jettySize=auto;html=1;" parent="1" source="sVLV9i07jI9ABUai_hqA-14" target="sVLV9i07jI9ABUai_hqA-16" edge="1">
                    <mxGeometry relative="1" as="geometry">
                        <mxPoint x="230" y="800" as="targetPoint"/>
                    </mxGeometry>
                </mxCell>
                <mxCell id="sVLV9i07jI9ABUai_hqA-14" value="&lt;div&gt;Ingresar:&lt;/div&gt;&lt;div&gt; fecha y hora de salida&lt;/div&gt;" style="shape=parallelogram;perimeter=parallelogramPerimeter;whiteSpace=wrap;html=1;fixedSize=1;" parent="1" vertex="1">
                    <mxGeometry x="170" y="690" width="120" height="60" as="geometry"/>
                </mxCell>
                <mxCell id="sVLV9i07jI9ABUai_hqA-17" style="edgeStyle=orthogonalEdgeStyle;rounded=0;orthogonalLoop=1;jettySize=auto;html=1;" parent="1" source="sVLV9i07jI9ABUai_hqA-16" target="sVLV9i07jI9ABUai_hqA-18" edge="1">
                    <mxGeometry relative="1" as="geometry">
                        <mxPoint x="230" y="890" as="targetPoint"/>
                    </mxGeometry>
                </mxCell>
                <mxCell id="sVLV9i07jI9ABUai_hqA-16" value="Calculo de precio" style="rounded=0;whiteSpace=wrap;html=1;" parent="1" vertex="1">
                    <mxGeometry x="170" y="780" width="120" height="60" as="geometry"/>
                </mxCell>
                <mxCell id="sVLV9i07jI9ABUai_hqA-19" style="edgeStyle=orthogonalEdgeStyle;rounded=0;orthogonalLoop=1;jettySize=auto;html=1;" parent="1" source="sVLV9i07jI9ABUai_hqA-18" target="sVLV9i07jI9ABUai_hqA-20" edge="1">
                    <mxGeometry relative="1" as="geometry">
                        <mxPoint x="230" y="970" as="targetPoint"/>
                    </mxGeometry>
                </mxCell>
                <mxCell id="sVLV9i07jI9ABUai_hqA-18" value="notificar precio" style="rounded=0;whiteSpace=wrap;html=1;" parent="1" vertex="1">
                    <mxGeometry x="170" y="860" width="120" height="60" as="geometry"/>
                </mxCell>
                <mxCell id="sVLV9i07jI9ABUai_hqA-21" style="edgeStyle=orthogonalEdgeStyle;rounded=0;orthogonalLoop=1;jettySize=auto;html=1;" parent="1" source="sVLV9i07jI9ABUai_hqA-20" target="sVLV9i07jI9ABUai_hqA-22" edge="1">
                    <mxGeometry relative="1" as="geometry">
                        <mxPoint x="230" y="1080" as="targetPoint"/>
                    </mxGeometry>
                </mxCell>
                <mxCell id="sVLV9i07jI9ABUai_hqA-27" value="no" style="edgeStyle=orthogonalEdgeStyle;rounded=0;orthogonalLoop=1;jettySize=auto;html=1;entryX=1;entryY=0.5;entryDx=0;entryDy=0;" parent="1" source="sVLV9i07jI9ABUai_hqA-20" target="sVLV9i07jI9ABUai_hqA-16" edge="1">
                    <mxGeometry relative="1" as="geometry">
                        <Array as="points">
                            <mxPoint x="310" y="990"/>
                            <mxPoint x="310" y="810"/>
                        </Array>
                    </mxGeometry>
                </mxCell>
                <mxCell id="sVLV9i07jI9ABUai_hqA-20" value="Es correcto?" style="rhombus;whiteSpace=wrap;html=1;" parent="1" vertex="1">
                    <mxGeometry x="190" y="950" width="80" height="80" as="geometry"/>
                </mxCell>
                <mxCell id="sVLV9i07jI9ABUai_hqA-23" style="edgeStyle=orthogonalEdgeStyle;rounded=0;orthogonalLoop=1;jettySize=auto;html=1;" parent="1" source="sVLV9i07jI9ABUai_hqA-22" target="sVLV9i07jI9ABUai_hqA-24" edge="1">
                    <mxGeometry relative="1" as="geometry">
                        <mxPoint x="230" y="1170" as="targetPoint"/>
                    </mxGeometry>
                </mxCell>
                <mxCell id="sVLV9i07jI9ABUai_hqA-22" value="Realizar cobro" style="rounded=0;whiteSpace=wrap;html=1;" parent="1" vertex="1">
                    <mxGeometry x="170" y="1060" width="120" height="60" as="geometry"/>
                </mxCell>
                <mxCell id="sVLV9i07jI9ABUai_hqA-24" value="fin" style="ellipse;whiteSpace=wrap;html=1;" parent="1" vertex="1">
                    <mxGeometry x="170" y="1150" width="120" height="60" as="geometry"/>
                </mxCell>
            </root>
        </mxGraphModel>
    </diagram>
</mxfile>